<?xml version="1.0" encoding="UTF-8"?>
<svg version="1.1" xmlns="http://www.w3.org/2000/svg" width="512" height="512">
<path d="M0 0 C0 0.33 0 0.66 0 1 C-1.15371094 1.07476562 -2.30742187 1.14953125 -3.49609375 1.2265625 C-43.55673488 4.27991416 -77.12098859 19.52549364 -107 46 C-106.67 46.33 -106.34 46.66 -106 47 C-105.08734375 46.21689453 -105.08734375 46.21689453 -104.15625 45.41796875 C-74.61412135 20.61126954 -74.61412135 20.61126954 -63 20 C-65.55071314 22.82928932 -68.46621272 24.67893264 -71.6875 26.6875 C-72.68136719 27.31011719 -73.67523438 27.93273437 -74.69921875 28.57421875 C-75.45847656 29.04472656 -76.21773438 29.51523438 -77 30 C-75.96875 29.525625 -74.9375 29.05125 -73.875 28.5625 C-70.58543166 27.14798561 -67.54256215 26.56680994 -64 26 C-62.38641565 25.59862426 -60.78212784 25.15858279 -59.1875 24.6875 C-58.41792969 24.46449219 -57.64835937 24.24148437 -56.85546875 24.01171875 C-54.79219801 23.15257404 -54.79219801 23.15257404 -54.23828125 20.89453125 C-54.15964844 20.26933594 -54.08101563 19.64414063 -54 19 C-51.69 18.67 -49.38 18.34 -47 18 C-47.33 18.66 -47.66 19.32 -48 20 C-46.22161271 20.76154539 -46.22161271 20.76154539 -44 21 C-41.87160797 19.91891334 -41.87160797 19.91891334 -39.625 18.3125 C-19.56088529 7.03136604 13.86406268 7.99203571 35.75878906 13.45214844 C38.48210336 14.11784749 41.22018229 14.69936666 43.9609375 15.2890625 C62.83477256 19.49816886 62.83477256 19.49816886 70.2890625 25.0703125 C74.58988559 28.1317053 79.29984967 30.39919975 83.98999023 32.80395508 C88.18241486 34.97380024 92.10434079 37.31670671 96 40 C96.845625 40.495 97.69125 40.99 98.5625 41.5 C101.25157848 43.15481752 103.57719693 44.97160673 106 47 C106.54011719 47.44730469 107.08023437 47.89460938 107.63671875 48.35546875 C112.2125918 52.24064398 116.49806296 56.39270377 120.75 60.625 C121.58241211 61.45052368 121.58241211 61.45052368 122.43164062 62.29272461 C131 70.8934614 131 70.8934614 131 74 C131.58523438 74.23203125 132.17046875 74.4640625 132.7734375 74.703125 C137.92952988 77.70632267 141.19251071 84.06904735 143.4375 89.4375 C144 92 144 92 144 95 C144.8247776 97.0901321 144.8247776 97.0901321 145.96875 99.30859375 C146.57783203 100.55286133 146.57783203 100.55286133 147.19921875 101.82226562 C148.06484902 103.56262437 148.9320316 105.3022119 149.80078125 107.04101562 C150.20683594 107.87181641 150.61289062 108.70261719 151.03125 109.55859375 C151.40830078 110.31454834 151.78535156 111.07050293 152.17382812 111.84936523 C153 114 153 114 153 118 C152.34 118 151.68 118 151 118 C151.58252195 121.15024665 152.19458923 124.29401941 152.8125 127.4375 C153.0609668 128.78424805 153.0609668 128.78424805 153.31445312 130.15820312 C153.48525391 131.01220703 153.65605469 131.86621094 153.83203125 132.74609375 C153.98389893 133.53685303 154.1357666 134.3276123 154.29223633 135.14233398 C154.52579834 135.75536377 154.75936035 136.36839355 155 137 C155.99 137.33 156.98 137.66 158 138 C157.747138 129.54176625 156.88348472 121.46606997 155.125 113.1875 C154.96354492 112.4246167 154.80208984 111.6617334 154.63574219 110.87573242 C154.12578574 108.57374942 153.57292014 106.28708948 153 104 C152.81735596 103.23679443 152.63471191 102.47358887 152.4465332 101.68725586 C150.39572263 93.97768362 146.73574904 87.16234617 142.9375 80.1875 C142.60064178 79.56516479 142.26378357 78.94282959 141.91671753 78.30163574 C126.89821155 50.6571569 103.2741854 28.1370927 75 14 C75 13.34 75 12.68 75 12 C102.00678192 19.32387306 127.152596 45.81150492 141 69 C141.40395996 69.67160156 141.80791992 70.34320313 142.22412109 71.03515625 C144.95284651 75.62037201 147.51957477 80.2764625 150 85 C150.54269531 86.01835937 151.08539063 87.03671875 151.64453125 88.0859375 C155.1119631 95.05739678 157.50233073 102.26414823 159.8125 109.6875 C160.11494629 110.64986572 160.41739258 111.61223145 160.72900391 112.60375977 C162.56710168 118.73513629 163.61908541 124.60987449 164 131 C164.66 131 165.32 131 166 131 C156.62573097 88.16255738 136.65758815 46.46715994 99.24609375 21.02734375 C90.23810632 15.40141658 80.98210904 9.89962491 71.421875 5.265625 C69 4 69 4 68 2 C85.26670186 7.40071276 100.44454616 18.29301714 114 30 C114.80179687 30.67933594 115.60359375 31.35867187 116.4296875 32.05859375 C143.23860481 55.21174961 160.88964542 89.30992023 167.1394043 123.84228516 C168.25507694 129.49384979 169.24353571 131.51892834 174 135 C184.86809797 162.77767639 167.48217056 203.50926354 158.84448242 230.16699219 C158.06900058 232.76852191 157.48180822 235.3302985 157 238 C170.59373362 241.21202145 187.88258661 242.93872983 200.64453125 236.51171875 C204.09494051 234.29727699 207.00605036 231.79869205 210 229 C210.66 229 211.32 229 212 229 C214.15552588 235.46657763 213.79670605 242.91951954 211.02734375 249.16015625 C206.71214379 256.88813793 200.4768136 260.91673624 192.10546875 263.609375 C179.00886695 266.03917125 165.29422851 262.77340613 153.1328125 257.8359375 C150.91627626 256.81754318 150.91627626 256.81754318 148 257 C146.11544703 259.57989797 146.11544703 259.57989797 144.3125 262.875 C135.6712821 277.53567309 125.12228927 288.83084816 109 295 C104.48597925 295.93508691 100.17432686 296.19702638 95.5859375 295.78125 C91.95895583 296.08806416 89.77103577 297.65295434 86.6875 299.5625 C63.53160386 313.34562546 36.9671521 320.9799638 10 320 C10 319.67 10 319.34 10 319 C11.80017578 318.87044922 11.80017578 318.87044922 13.63671875 318.73828125 C40.89500528 316.54190622 66.2715864 308.59505925 90 295 C89.67 294.34 89.34 293.68 89 293 C88.26394531 293.42152344 87.52789062 293.84304688 86.76953125 294.27734375 C85.79371094 294.82519531 84.81789063 295.37304688 83.8125 295.9375 C82.84957031 296.48277344 81.88664063 297.02804687 80.89453125 297.58984375 C78.19337158 298.90579333 75.95643899 299.57301887 73 300 C75.32649587 297.49280542 77.82681521 295.67816399 80.6875 293.8125 C81.49574219 293.28269531 82.30398438 292.75289063 83.13671875 292.20703125 C83.75160156 291.80871094 84.36648438 291.41039062 85 291 C83.84757812 291.48146484 83.84757812 291.48146484 82.671875 291.97265625 C80 293 80 293 77.25 293.4375 C74.47208177 293.91829354 71.88682621 294.51681906 69.1875 295.3125 C68.41792969 295.53550781 67.64835938 295.75851562 66.85546875 295.98828125 C64.79219801 296.84742596 64.79219801 296.84742596 64.23828125 299.10546875 C64.15964844 299.73066406 64.08101562 300.35585938 64 301 C61.69 301.33 59.38 301.66 57 302 C57.33 301.34 57.66 300.68 58 300 C56.22161271 299.23845461 56.22161271 299.23845461 54 299 C51.87160797 300.08108666 51.87160797 300.08108666 49.625 301.6875 C29.56088529 312.96863396 -3.86406268 312.00796429 -25.75878906 306.54785156 C-28.48210336 305.88215251 -31.22018229 305.30063334 -33.9609375 304.7109375 C-52.83477256 300.50183114 -52.83477256 300.50183114 -60.2890625 294.9296875 C-64.58988559 291.8682947 -69.29984967 289.60080025 -73.98999023 287.19604492 C-78.18257795 285.02611535 -82.10246735 282.68062997 -86 280 C-86.86625 279.505 -87.7325 279.01 -88.625 278.5 C-91.13327238 276.91582797 -92.90850343 275.09149657 -95 273 C-95.78238037 272.54286621 -96.56476074 272.08573242 -97.37084961 271.61474609 C-99.98810605 270.00730491 -101.90703809 268.33686252 -104.06640625 266.1640625 C-104.79923828 265.42929687 -105.53207031 264.69453125 -106.28710938 263.9375 C-107.41342773 262.7928125 -107.41342773 262.7928125 -108.5625 261.625 C-109.31724609 260.86960937 -110.07199219 260.11421875 -110.84960938 259.3359375 C-121 249.1050592 -121 249.1050592 -121 246 C-121.87785156 245.65195312 -121.87785156 245.65195312 -122.7734375 245.296875 C-127.92952988 242.29367733 -131.19251071 235.93095265 -133.4375 230.5625 C-134 228 -134 228 -134 225 C-136.31 224.67 -138.62 224.34 -141 224 C-132.20136305 241.36361047 -123.99479372 257.50658743 -110.3671875 271.5859375 C-109.0765624 272.92081261 -107.80331408 274.27242553 -106.53125 275.625 C-94.83744611 287.77440663 -80.11277413 298.44361294 -65 306 C-65 306.66 -65 307.32 -65 308 C-94.96170597 299.8747916 -119.8449705 270.40860279 -134.69897461 244.69848633 C-145 226.53643346 -145 226.53643346 -145 223 C-145.66 223 -146.32 223 -147 223 C-130.36813706 261.56496849 -105.94326593 290.77082007 -68.78710938 311.02490234 C-66.34928609 312.355048 -63.92490251 313.70897737 -61.5 315.0625 C-60.33359688 315.70880919 -59.16705892 316.35487576 -58 317 C-58.66 317.33 -59.32 317.66 -60 318 C-62.4964049 316.95881649 -64.84919136 315.85768903 -67.25 314.625 C-68.32374878 314.07851807 -68.32374878 314.07851807 -69.41918945 313.52099609 C-105.63877232 294.73691456 -136.13922571 262.77507746 -150 224 C-150 223.34 -150 222.68 -150 222 C-150.845625 221.95875 -151.69125 221.9175 -152.5625 221.875 C-157.17117354 220.7018831 -159.8703985 218.53367663 -163 215 C-166.87491519 207.76682497 -167.74307671 200.10629133 -167 192 C-165.8125 188.9375 -165.8125 188.9375 -164 187 C-161.3125 186.1875 -161.3125 186.1875 -159 186 C-159.16588623 185.00436035 -159.33177246 184.0087207 -159.50268555 182.98291016 C-160.06160107 179.05565866 -160.04973877 175.24209802 -159.95703125 171.2734375 C-159.93466184 169.81511747 -159.91320441 168.35678322 -159.89257812 166.8984375 C-159.85541315 164.62915911 -159.81212637 162.36062055 -159.75317383 160.09179688 C-159.69858146 157.88140199 -159.66958338 155.67183871 -159.64453125 153.4609375 C-159.61721924 152.14915527 -159.58990723 150.83737305 -159.56176758 149.48583984 C-160.07138359 145.43219225 -161.23496389 143.9242859 -164 141 C-167.57954283 134.55682291 -166.37578943 126.47694105 -164.8046875 119.546875 C-162.56505497 112.45832934 -159.28651204 107.53281218 -152.9375 103.625 C-147.80359033 100.3246295 -146.34535881 97.20162087 -144.3515625 91.54296875 C-142.67217177 87.14063524 -140.5408034 83.08262826 -138.3125 78.9375 C-137.91925537 78.19902832 -137.52601074 77.46055664 -137.12084961 76.69970703 C-132.60536736 68.28780844 -132.60536736 68.28780844 -129.98803711 67.04345703 C-127.54078274 65.75897156 -127.19573904 64.83271802 -126.19140625 62.3046875 C-123.9761288 57.52486258 -120.85440069 54.56610781 -116.9375 51.125 C-115.93396484 50.22056152 -115.93396484 50.22056152 -114.91015625 49.29785156 C-113.56485246 48.08591841 -112.21579817 46.87813389 -110.86279297 45.67480469 C-109.24413422 44.21949682 -107.66283881 42.7388108 -106.09765625 41.2265625 C-99.00889086 34.46825084 -91.29903949 29.13698952 -83 24 C-82.4131543 23.63632324 -81.82630859 23.27264648 -81.22167969 22.89794922 C-74.64044811 18.87154356 -67.92273719 15.36796691 -60.875 12.25 C-60.26664307 11.98034424 -59.65828613 11.71068848 -59.03149414 11.43286133 C-49.24153692 7.2445408 -39.18202017 4.32593849 -28.75 2.25 C-27.13170288 1.9247937 -27.13170288 1.9247937 -25.48071289 1.59301758 C-16.87036941 -0.03863898 -8.74437222 -0.58643331 0 0 Z M-7 17 C-7 17.33 -7 17.66 -7 18 C-6.1656543 18.03963867 -5.33130859 18.07927734 -4.47167969 18.12011719 C29.96824093 19.83500732 66.59372953 24.86959639 94 48 C94.5789502 48.48855469 95.15790039 48.97710937 95.75439453 49.48046875 C98.86831254 52.1164885 101.9602533 54.77507507 105.03125 57.4609375 C107.91495383 60.02943086 107.91495383 60.02943086 111 62 C108.42396059 52.55452218 98.03462995 46.70448129 90.57519531 41.16943359 C89.18678964 40.13867365 87.80750073 39.09565785 86.4296875 38.05078125 C71.283682 26.92871451 54.73641066 22.12109005 36.46240234 19.13476562 C34.13216997 18.75118027 31.80658881 18.34519578 29.48046875 17.9375 C17.26553948 15.86491999 5.31478774 14.98942241 -7 17 Z M-21.9375 19.5 C-22.96327148 19.71462891 -22.96327148 19.71462891 -24.00976562 19.93359375 C-25.67449514 20.28283771 -27.33744875 20.64052946 -29 21 C-29 21.33 -29 21.66 -29 22 C-21.5928819 21.37727768 -14.31805865 20.29512034 -7 19 C-7 18.67 -7 18.34 -7 18 C-12.23419357 17.83664415 -16.86306192 18.39447963 -21.9375 19.5 Z M-54 35 C-55.134375 35.50015625 -56.26875 36.0003125 -57.4375 36.515625 C-84.26250865 49.07460632 -108.80177645 71.84516064 -121 99 C-119.06374902 99.98163422 -117.12595461 100.96022454 -115.1875 101.9375 C-113.56908203 102.75541016 -113.56908203 102.75541016 -111.91796875 103.58984375 C-109.03788473 105.0585207 -109.03788473 105.0585207 -106 106 C-105 107.8125 -105 107.8125 -104 110 C-102.80615789 112.19171073 -102.80615789 112.19171073 -101 114 C-98.68144765 114.45908782 -98.68144765 114.45908782 -96.11328125 114.171875 C-95.17548828 114.11386719 -94.23769531 114.05585938 -93.27148438 113.99609375 C-92.29501953 113.91488281 -91.31855469 113.83367187 -90.3125 113.75 C-89.32443359 113.68425781 -88.33636719 113.61851562 -87.31835938 113.55078125 C-84.87698692 113.38566427 -82.43860383 113.20139619 -80 113 C-79.11679011 108.54071649 -78.93824549 106.12350902 -81 102 C-75.45664217 101.02748108 -71.26688576 100.52146552 -66 103 C-63.71244785 106.98476825 -63 109.3959053 -63 114 C-50.71712902 115.94518008 -34.30973538 117.04256453 -23.3125 110 C-21.4530382 108.39181683 -19.72329019 106.74812146 -18 105 C-17.37827964 115.82829625 -17.37827964 115.82829625 -19.625 120.0625 C-24.70536006 124.20700426 -29.76869751 125.5857885 -36.1875 126.25 C-36.85974609 126.34023437 -37.53199219 126.43046875 -38.22460938 126.5234375 C-47.11376223 127.50496462 -56.10556859 126.57203313 -65 126 C-77.8952423 166.86170363 -77.8952423 166.86170363 -81 209 C-80.67 209.33 -80.34 209.66 -80 210 C-75.29675375 210 -72.85124149 209.2844907 -69.4375 206 C-68.27000905 204.68558884 -67.12419959 203.35162387 -66 202 C-65.44957031 201.41863281 -64.89914063 200.83726562 -64.33203125 200.23828125 C-59.47602351 194.32714097 -59.01799689 187.92837493 -58.10791016 180.59375 C-56.45178527 167.72711739 -51.31222809 154.31222809 -42 145 C-35.31605548 140.36260527 -30.22160514 137.87346691 -22.0625 137.75 C-21.04285156 137.72421875 -20.02320313 137.6984375 -18.97265625 137.671875 C-15.5226337 138.05269221 -13.73725256 138.88636498 -11 141 C-7.53823032 145.85696776 -8.5065416 152.34765835 -9 158 C-10.86255478 167.42527723 -16.20699361 175.11055699 -24.19921875 180.4765625 C-29.86735443 183.30554224 -35.73913712 183.76594905 -42 184 C-44.08445971 190.25337913 -44.09941634 197.58306873 -41.1875 203.5625 C-39.07727604 207.32209442 -37.14966363 209.61677879 -33 211 C-27.13976686 211.82043264 -23.92985665 210.30374958 -19.32421875 206.94921875 C-15.03664964 203.3534255 -11.46367006 199.38690234 -8 195 C-7.33097656 194.16984375 -6.66195312 193.3396875 -5.97265625 192.484375 C4.25163063 177.98815836 7.92160916 157.96493225 12 141 C11.28344238 140.77497803 10.56688477 140.54995605 9.82861328 140.31811523 C3.87569541 138.38252162 0.82392358 136.43510386 -2.16015625 130.90234375 C-4.97477296 124.52690963 -4.94552105 117.19095816 -3.421875 110.4375 C-2.14174218 107.27208066 -1.06081025 105.51329528 2.05859375 104.00390625 C5.65696607 103.02694513 8.66427532 102.96891438 12.375 103.3125 C15.54831204 105.35248631 16.46927927 107.27450011 17.4765625 110.87109375 C18.64347813 117.84646254 18.77919723 124.94192526 19 132 C19.79664063 132.15855469 20.59328125 132.31710938 21.4140625 132.48046875 C27.91778374 133.91255335 32.42500276 135.06381877 37 140 C40.67729083 145.84791388 39.68817099 153.57221156 38.3828125 160.07421875 C36.19915832 167.62038652 33.02931503 174.76321553 29.94140625 181.97094727 C23.42115515 196.47264168 23.42115515 196.47264168 23 212 C25.04701116 214.69121761 25.71860677 214.9613774 29.1875 215.4375 C33.80012202 214.90818272 37.03149037 213.30895106 41 211 C40.97679687 210.43796875 40.95359375 209.8759375 40.9296875 209.296875 C40.5768318 192.86388118 43.39685466 176.64265857 46.32299805 160.53198242 C48.61391148 148.71880327 48.61391148 148.71880327 47 137 C48.56941198 135.43058802 50.14134994 135.7550153 52.3125 135.6875 C55.54700026 135.73378061 56.72752813 135.82289329 59.5 137.625 C63.63650384 144.17446441 61.48655479 151.88530263 60 159 C59.19761895 162.465977 58.34913441 165.92022185 57.5 169.375 C51.93858927 191.68232949 51.93858927 191.68232949 55 214 C56.78352635 214.78481329 56.78352635 214.78481329 59 215 C61.20233268 213.85101405 61.20233268 213.85101405 63.1875 212 C63.88230469 211.4225 64.57710937 210.845 65.29296875 210.25 C68.95548401 205.42251993 68.03869344 199.16017116 67.88330078 193.37719727 C67.14547926 162.74233873 71.13396222 117.68856831 91.79296875 92.84375 C95.2786664 89.21684071 98.31489411 86.32662426 103.47265625 85.69921875 C104.32730469 85.69535156 105.18195313 85.69148438 106.0625 85.6875 C107.34833984 85.66236328 107.34833984 85.66236328 108.66015625 85.63671875 C111.47239767 86.07334388 112.28672296 86.77379742 114 89 C119.67358739 101.54161424 113.98638433 118.34354386 109.54223633 130.62939453 C104.31726066 144.39528691 96.81535012 163.14720982 84.4375 171.7890625 C80.0242064 175.79214611 80.34821659 181.31038966 80 187 C79.91899633 195.69776858 81.56547326 203.02870305 85 211 C88.16324392 212.03853294 88.16324392 212.03853294 92 212 C108.13796351 202.90405693 113.92933283 171.57399356 118.6328125 154.734375 C119.1636345 152.22708812 119.09294795 149.80762742 119.0625 147.25 C119.05347656 146.26515625 119.04445313 145.2803125 119.03515625 144.265625 C119.02355469 143.51796875 119.01195312 142.7703125 119 142 C126.2238041 140.65318907 126.2238041 140.65318907 129.9375 142.3125 C132.54638542 144.44704262 132.93367801 145.34625466 133.2734375 148.6953125 C133.59290354 159.48343506 130.81436383 168.26424419 127.17431641 178.26953125 C121.94980608 191.76444405 121.94980608 191.76444405 122 206 C123.43534431 208.28062727 123.43534431 208.28062727 125 210 C132.35509946 207.77118198 137.68123053 202.10403064 141.71484375 195.7578125 C144.3237262 190.15942038 145.12010979 184.0706094 146 178 C146.27650391 176.22109375 146.27650391 176.22109375 146.55859375 174.40625 C150.63931556 140.47679113 142.9279596 108.56162706 122.1875 81.3125 C102.20830538 55.92537363 77.13050723 37.27957225 46 28 C45.33935547 27.80180664 44.67871094 27.60361328 43.99804688 27.39941406 C11.49322001 17.90416168 -23.24748231 21.13390943 -54 35 Z M-115 53 C-117.34399511 55.2716253 -117.34399511 55.2716253 -119.625 58.1875 C-120.42164063 59.15042969 -121.21828125 60.11335938 -122.0390625 61.10546875 C-123.93689941 63.9068575 -124.6477881 65.67827739 -125 69 C-121.96525291 66.05721495 -119.06934208 63.02568744 -116.25 59.875 C-115.65703125 59.21242188 -115.0640625 58.54984375 -114.453125 57.8671875 C-112.80100363 55.95816621 -112.80100363 55.95816621 -112 53 C-112.99 53 -113.98 53 -115 53 Z M115 66 C116.3089572 69.12197478 116.3089572 69.12197478 119 71 C117.6910428 67.87802522 117.6910428 67.87802522 115 66 Z M121 73 C122 75 122 75 122 75 Z M123 76 C124 78 124 78 124 78 Z M103.0625 96.8125 C90.88989565 115.62470672 85.25708012 143.01338427 83 165 C96.30210136 152.90718058 103.05307334 134.88364037 108 118 C108.24621094 117.17113281 108.49242187 116.34226562 108.74609375 115.48828125 C110.31189924 109.47342844 111.84625452 100.69250904 109 95 C105.04466042 94.54456191 105.04466042 94.54456191 103.0625 96.8125 Z M-127 111 C-130.9514005 120.84653198 -134.42764797 130.44869034 -136 141 C-136.17273438 141.83917969 -136.34546875 142.67835938 -136.5234375 143.54296875 C-135.63430784 147.71656993 -132.13653486 149.3184066 -128.75 151.625 C-127.27381841 152.68128848 -125.80119458 153.74256535 -124.33203125 154.80859375 C-123.59807129 155.34081543 -122.86411133 155.87303711 -122.10791016 156.42138672 C-111.31130203 164.50696329 -99.8021182 174.58063714 -97.60546875 188.5 C-97.35157329 190.66657459 -97.14608826 192.82378862 -97 195 C-96.67 195 -96.34 195 -96 195 C-94.31840492 187.05518403 -92.64038851 179.10962402 -90.96684361 171.16310883 C-90.18950897 167.47262812 -89.41097799 163.78240854 -88.62963867 160.09277344 C-87.8746229 156.5272201 -87.1228468 152.96099733 -86.37324333 149.39430237 C-86.08774282 148.0386204 -85.80110669 146.68317704 -85.51327705 145.32798767 C-84.0781673 138.56756118 -82.70080423 131.87924583 -82 125 C-84.43868168 124.8920141 -86.87259133 124.81273411 -89.3125 124.75 C-90.34793945 124.69972656 -90.34793945 124.69972656 -91.40429688 124.6484375 C-93.68993722 124.56118736 -93.68993722 124.56118736 -97 125 C-98.66704623 126.90671927 -98.66704623 126.90671927 -100 129 C-102.59375 129.7578125 -102.59375 129.7578125 -105.5 130.125 C-109.20111593 130.61251258 -110.8266998 130.88446653 -114 133 C-113.89300781 132.27554688 -113.78601563 131.55109375 -113.67578125 130.8046875 C-113.14077892 126.49015255 -112.78870284 122.8776959 -113.8125 118.625 C-117.09590286 114.68491657 -121.29930608 112.90386528 -126 111 C-126.33 111 -126.66 111 -127 111 Z M8 113 C4.97762243 116.4541458 4.52254367 119.6435045 4.71484375 124.06640625 C5.14836504 127.00603689 6.04523338 128.7756104 8 131 C10.54051214 131.97610842 10.54051214 131.97610842 13 132 C14.91811433 130.08188567 14.17438668 126.73410709 14.1875 124.1875 C14.20167969 122.94355469 14.21585938 121.69960937 14.23046875 120.41796875 C14.01852668 117.27476006 13.66475807 115.61228836 12 113 C10.68 113 9.36 113 8 113 Z M150 116 C151 118 151 118 151 118 Z M18 142 C15.63068931 148.09048033 13.65724968 154.23240601 11.8125 160.5 C11.53986328 161.4178125 11.26722656 162.335625 10.98632812 163.28125 C10.32167172 165.52009261 9.65961754 167.7596687 9 170 C9.66 170 10.32 170 11 170 C-6.68185769 211.69361118 -6.68185769 211.69361118 -26.9375 221.0625 C-33.89415655 223.64102907 -40.38662607 224.56806793 -47.3125 221.5625 C-52.26796048 216.83752605 -55.60860971 211.39584102 -58 205 C-58.495 205.639375 -58.99 206.27875 -59.5 206.9375 C-60.325 207.948125 -61.15 208.95875 -62 210 C-62.87398437 211.08667969 -62.87398437 211.08667969 -63.765625 212.1953125 C-69.03365929 218.47962112 -73.80925837 222.4352212 -82 223.875 C-86.43476904 224.21681026 -89.84917088 223.64601845 -94 222 C-95.89113396 217.7636111 -96.34343626 213.72387447 -96.625 209.125 C-96.69976562 207.97257812 -96.77453125 206.82015625 -96.8515625 205.6328125 C-96.92503906 204.32957031 -96.92503906 204.32957031 -97 203 C-97.28359375 203.57878906 -97.5671875 204.15757812 -97.859375 204.75390625 C-101.41352845 211.75266732 -105.05869154 218.3073971 -112.828125 220.96875 C-115.54090569 221.71998158 -118.25056472 222.39825527 -121 223 C-117.45887334 235.06086704 -107.23281081 244.75999942 -99 254 C-98.35675781 254.72960937 -97.71351563 255.45921875 -97.05078125 256.2109375 C-80.76133687 273.56194118 -58.63360778 285.32655172 -36 292 C-35.34225586 292.19674316 -34.68451172 292.39348633 -34.00683594 292.59619141 C2.28387587 303.2010843 39.95343333 297.63816279 73.1875 280.375 C74.26680786 279.8166748 74.26680786 279.8166748 75.36791992 279.24707031 C81.90012823 275.80812344 81.90012823 275.80812344 85.80078125 269.7734375 C85.96964844 268.98195313 86.13851562 268.19046875 86.3125 267.375 C88.99957379 257.61819196 95.40871249 250.18919061 104 245 C108.75737779 242.72130695 113.61444813 240.76691075 118.63671875 239.15234375 C125.18402555 235.95985531 129.22839645 226.46707496 132 220 C131.67 219.34 131.34 218.68 131 218 C130.50371094 218.27714844 130.00742187 218.55429687 129.49609375 218.83984375 C123.56380573 222.00298025 118.46268813 223.62163198 111.6875 222.4375 C108 221 108 221 106.5625 218.4375 C105.88550657 214.3003179 105.3527422 210.17721025 105 206 C103.08814875 208.37069556 101.19042567 210.74087354 99.38671875 213.1953125 C91.88892866 223.26994841 91.88892866 223.26994841 85.8359375 224.40625 C81.46839546 224.69839328 79.40474688 224.25484063 75.625 221.875 C73.03194734 219.03498994 71.47887738 216.53287375 70 213 C69.319375 213.721875 68.63875 214.44375 67.9375 215.1875 C59.6594488 223.28056681 59.6594488 223.28056681 52.8125 223.5625 C49.40334849 223.39178376 48.29176857 223.21882643 45.5 221.125 C45.005 220.42375 44.51 219.7225 44 219 C43.34 218.34 42.68 217.68 42 217 C41.18015625 217.34933594 40.3603125 217.69867188 39.515625 218.05859375 C38.43796875 218.51363281 37.3603125 218.96867187 36.25 219.4375 C35.18265625 219.88996094 34.1153125 220.34242188 33.015625 220.80859375 C28.28407594 222.67792336 24.61350542 223.13672822 19.5 223.125 C18.3759375 223.12757813 17.251875 223.13015625 16.09375 223.1328125 C13.5279301 223.02266367 11.43733573 222.75270662 9 222 C4.67475114 211.05966466 8.30906419 199.54297581 12.0625 188.9375 C12.65998047 187.19182739 12.65998047 187.19182739 13.26953125 185.41088867 C16.07865164 177.31077668 19.12298453 169.31427323 22.52368164 161.44311523 C24.58375233 156.5688741 25.7943986 152.31708072 26 147 C23.91542329 143.91422496 23.91542329 143.91422496 21 142 C20.01 142 19.02 142 18 142 Z M156 145 C156 146.98 156 148.96 156 151 C156.33 151 156.66 151 157 151 C157 149.02 157 147.04 157 145 C156.67 145 156.34 145 156 145 Z M-32.0625 154.5625 C-36.8403022 161.30171574 -40.44629208 168.69438121 -41 177 C-32.74825282 176.41058949 -26.89205321 174.37142743 -21.1875 168.1875 C-16.25718199 162.0977693 -14.33218281 156.8802429 -15 149 C-16.86000815 146.73660301 -16.86000815 146.73660301 -19.75 146.625 C-25.37747181 147.27432367 -28.62338527 150.27899904 -32.0625 154.5625 Z M-158 149 C-158.04966189 153.44741318 -158.08584293 157.8946768 -158.10986328 162.34228516 C-158.11988339 163.85338149 -158.13350321 165.36445862 -158.15087891 166.87548828 C-158.17530392 169.05506142 -158.18652307 171.23437684 -158.1953125 173.4140625 C-158.20578613 174.7232666 -158.21625977 176.0324707 -158.22705078 177.38134766 C-158.00366763 180.9415466 -157.2935223 183.69234262 -156 187 C-155.67 187 -155.34 187 -155 187 C-155 174.79 -155 162.58 -155 150 C-155.99 149.67 -156.98 149.34 -158 149 Z M-151 155 C-151.29371591 174.91186218 -151.29371591 174.91186218 -148.5234375 194.578125 C-148.15459176 196.2847247 -147.8533215 198.00661716 -147.6015625 199.734375 C-146.91056145 205.17743612 -146.91056145 205.17743612 -143.375 209.125 C-142.59125 209.41375 -141.8075 209.7025 -141 210 C-141.66 207.36 -142.32 204.72 -143 202 C-142.34 202 -141.68 202 -141 202 C-141.57970647 193.50430168 -143.23801701 185.31124051 -145 177 C-145.66 178.32 -146.32 179.64 -147 181 C-147.33 179.02 -147.66 177.04 -148 175 C-147.34 175 -146.68 175 -146 175 C-145.86512405 172.22754986 -145.76599193 169.46162912 -145.6875 166.6875 C-145.64560547 165.90181641 -145.60371094 165.11613281 -145.56054688 164.30664062 C-145.51352551 162.09663625 -145.51632413 160.15851089 -146 158 C-148.3593351 155.87255161 -148.3593351 155.87255161 -151 155 Z M-137 165 C-137.72280613 181.89224706 -134.46085105 196.46468503 -128 212 C-120.72433914 211.37043801 -120.72433914 211.37043801 -115 207 C-112.23814203 201.25261247 -111.90691094 195.02022016 -113.58203125 188.859375 C-117.99376459 178.94808366 -127.34757168 171.14597091 -136 165 C-136.33 165 -136.66 165 -137 165 Z M-141 202 C-140 204 -140 204 -140 204 Z M-114 242 C-113 244 -113 244 -113 244 Z M-112 245 C-111 247 -111 247 -111 247 Z M-109 249 C-107.6910428 252.12197478 -107.6910428 252.12197478 -105 254 C-106.3089572 250.87802522 -106.3089572 250.87802522 -109 249 Z M133 252 C134 254 134 254 134 254 Z M132 254 C130.11393542 255.97727831 128.26713562 257.97163991 126.4375 260 C125.65729492 260.85851562 125.65729492 260.85851562 124.86132812 261.734375 C123.57179116 263.15404872 122.28558639 264.57674785 121 266 C122.32 266.33 123.64 266.66 125 267 C126.15395711 265.58994275 127.29787466 264.17166542 128.4375 262.75 C129.07558594 261.96109375 129.71367187 261.1721875 130.37109375 260.359375 C131.90505305 258.13752508 132.57130246 256.63256518 133 254 C132.67 254 132.34 254 132 254 Z M102 257 C98.7 259.97 95.4 262.94 92 266 C95.96130371 266 96.82914401 264.65122875 99.6875 262 C100.49574219 261.2575 101.30398438 260.515 102.13671875 259.75 C102.75160156 259.1725 103.36648438 258.595 104 258 C103.34 257.67 102.68 257.34 102 257 Z M-101 258 C-98.42396059 267.44547782 -88.03462995 273.29551871 -80.57519531 278.83056641 C-79.18678964 279.86132635 -77.80750073 280.90434215 -76.4296875 281.94921875 C-61.26364949 293.08599584 -44.7052101 297.88284241 -26.4074707 300.86523438 C-24.06637751 301.24936377 -21.72971375 301.65506221 -19.39257812 302.0625 C-7.11006803 304.13996777 4.59451283 304.71110168 17 303 C17 302.67 17 302.34 17 302 C15.77990234 301.94839722 15.77990234 301.94839722 14.53515625 301.89575195 C-9.11379388 300.82336916 -32.09156625 298.68218209 -54 289 C-54.77214844 288.66452148 -55.54429687 288.32904297 -56.33984375 287.98339844 C-71.16977784 281.47626701 -82.88153968 273.16377709 -95.03125 262.5390625 C-97.91495383 259.97056914 -97.91495383 259.97056914 -101 258 Z M110.875 276.1875 C107.23665659 279.30892848 103.6288028 282.38640403 99.6875 285.125 C98.800625 285.74375 97.91375 286.3625 97 287 C97 287.33 97 287.66 97 288 C99.72496151 288.52809332 101.45304595 288.35021652 103.80273438 286.84570312 C105.84617611 285.20723063 107.80301004 283.50191582 109.75 281.75 C110.43449219 281.16347656 111.11898438 280.57695312 111.82421875 279.97265625 C116.17050972 276.26172944 116.17050972 276.26172944 118 271 C115.57987493 271 112.72979159 274.58392345 110.875 276.1875 Z M28.1875 299 C27.21167969 299.185625 26.23585938 299.37125 25.23046875 299.5625 C24.12638672 299.7790625 24.12638672 299.7790625 23 300 C23 300.33 23 300.66 23 301 C28.63281599 301.2396943 33.54538831 300.38529821 39 299 C39 298.67 39 298.34 39 298 C35.25658943 297.89050353 31.86168936 298.29172253 28.1875 299 Z M17 301 C17 301.33 17 301.66 17 302 C18.98 302 20.96 302 23 302 C23 301.67 23 301.34 23 301 C21.02 301 19.04 301 17 301 Z " fill="#254364" transform="translate(251,96)"/>
<path d="M0 0 C0 0.33 0 0.66 0 1 C-1.15371094 1.07476562 -2.30742187 1.14953125 -3.49609375 1.2265625 C-43.55673488 4.27991416 -77.12098859 19.52549364 -107 46 C-106.67 46.33 -106.34 46.66 -106 47 C-105.08734375 46.21689453 -105.08734375 46.21689453 -104.15625 45.41796875 C-74.61412135 20.61126954 -74.61412135 20.61126954 -63 20 C-65.55071314 22.82928932 -68.46621272 24.67893264 -71.6875 26.6875 C-72.68136719 27.31011719 -73.67523438 27.93273437 -74.69921875 28.57421875 C-75.45847656 29.04472656 -76.21773438 29.51523438 -77 30 C-75.96875 29.525625 -74.9375 29.05125 -73.875 28.5625 C-70.58543166 27.14798561 -67.54256215 26.56680994 -64 26 C-62.38641565 25.59862426 -60.78212784 25.15858279 -59.1875 24.6875 C-58.41792969 24.46449219 -57.64835937 24.24148437 -56.85546875 24.01171875 C-54.79219801 23.15257404 -54.79219801 23.15257404 -54.23828125 20.89453125 C-54.15964844 20.26933594 -54.08101563 19.64414063 -54 19 C-51.69 18.67 -49.38 18.34 -47 18 C-47.33 18.66 -47.66 19.32 -48 20 C-46.22161271 20.76154539 -46.22161271 20.76154539 -44 21 C-41.87160797 19.91891334 -41.87160797 19.91891334 -39.625 18.3125 C-19.56088529 7.03136604 13.86406268 7.99203571 35.75878906 13.45214844 C38.48210336 14.11784749 41.22018229 14.69936666 43.9609375 15.2890625 C62.83477256 19.49816886 62.83477256 19.49816886 70.2890625 25.0703125 C74.58988559 28.1317053 79.29984967 30.39919975 83.98999023 32.80395508 C88.18241486 34.97380024 92.10434079 37.31670671 96 40 C96.845625 40.495 97.69125 40.99 98.5625 41.5 C101.25157848 43.15481752 103.57719693 44.97160673 106 47 C106.54011719 47.44730469 107.08023438 47.89460938 107.63671875 48.35546875 C112.2125918 52.24064398 116.49806296 56.39270377 120.75 60.625 C121.58241211 61.45052368 121.58241211 61.45052368 122.43164062 62.29272461 C131 70.8934614 131 70.8934614 131 74 C131.58523438 74.23203125 132.17046875 74.4640625 132.7734375 74.703125 C137.92952988 77.70632267 141.19251071 84.06904735 143.4375 89.4375 C144 92 144 92 144 95 C144.8247776 97.0901321 144.8247776 97.0901321 145.96875 99.30859375 C146.57783203 100.55286133 146.57783203 100.55286133 147.19921875 101.82226562 C148.06484902 103.56262437 148.9320316 105.3022119 149.80078125 107.04101562 C150.20683594 107.87181641 150.61289062 108.70261719 151.03125 109.55859375 C151.40830078 110.31454834 151.78535156 111.07050293 152.17382812 111.84936523 C153 114 153 114 153 118 C152.34 118 151.68 118 151 118 C152.98 127.405 152.98 127.405 155 137 C155.66 137 156.32 137 157 137 C158.35439668 139.70879335 158.06501451 142.00933268 158 145 C157.34 145 156.68 145 156 145 C156.05800781 145.825 156.11601562 146.65 156.17578125 147.5 C156.57188714 157.64031075 154.46392939 165.57896442 151 175 C150.33677734 176.86205078 150.33677734 176.86205078 149.66015625 178.76171875 C146.2253027 188.08489268 146.2253027 188.08489268 143 192 C143.32484375 190.12248047 143.32484375 190.12248047 143.65625 188.20703125 C149.7004322 150.67645978 145.90868702 116.08562325 123.62890625 84.578125 C98.7371191 50.67128446 64.37852644 30.79183663 23 24 C19.32396159 23.47734051 15.70944111 23.13499548 12 23 C11.1234375 22.96003906 10.246875 22.92007813 9.34375 22.87890625 C-12.54507354 22.36776614 -34.08815608 27.0218918 -54 36 C-55.134375 36.50015625 -56.26875 37.0003125 -57.4375 37.515625 C-78.57364901 47.41118567 -97.27409972 63.34148255 -110.625 82.4375 C-111.20954956 83.26350708 -111.20954956 83.26350708 -111.8059082 84.10620117 C-113.58353957 86.68021747 -115.05533926 89.13162231 -116.26953125 92.01953125 C-117.57438491 95.07000852 -118.44739852 96.85453388 -121 99 C-126.16704655 100.38031254 -131.59873081 100.12382289 -136.90380859 100.015625 C-140.64792027 99.98771641 -144.29443288 100.51964871 -148 101 C-144.51342346 89.42144359 -138.69881621 78.04822432 -132 68 C-131.33605225 67.68434082 -130.67210449 67.36868164 -129.98803711 67.04345703 C-127.54078274 65.75897156 -127.19573904 64.83271802 -126.19140625 62.3046875 C-123.9761288 57.52486258 -120.85440069 54.56610781 -116.9375 51.125 C-115.93396484 50.22056152 -115.93396484 50.22056152 -114.91015625 49.29785156 C-113.56485246 48.08591841 -112.21579817 46.87813389 -110.86279297 45.67480469 C-109.24413422 44.21949682 -107.66283881 42.7388108 -106.09765625 41.2265625 C-99.00889086 34.46825084 -91.29903949 29.13698952 -83 24 C-82.4131543 23.63632324 -81.82630859 23.27264648 -81.22167969 22.89794922 C-74.64044811 18.87154356 -67.92273719 15.36796691 -60.875 12.25 C-60.26664307 11.98034424 -59.65828613 11.71068848 -59.03149414 11.43286133 C-49.24153692 7.2445408 -39.18202017 4.32593849 -28.75 2.25 C-27.67113525 2.0331958 -26.59227051 1.8163916 -25.48071289 1.59301758 C-16.87036941 -0.03863898 -8.74437222 -0.58643331 0 0 Z M-7 17 C-7 17.33 -7 17.66 -7 18 C-6.1656543 18.03963867 -5.33130859 18.07927734 -4.47167969 18.12011719 C29.96824093 19.83500732 66.59372953 24.86959639 94 48 C94.5789502 48.48855469 95.15790039 48.97710937 95.75439453 49.48046875 C98.86831254 52.1164885 101.9602533 54.77507507 105.03125 57.4609375 C107.91495383 60.02943086 107.91495383 60.02943086 111 62 C108.42396059 52.55452218 98.03462995 46.70448129 90.57519531 41.16943359 C89.18678964 40.13867365 87.80750073 39.09565785 86.4296875 38.05078125 C71.283682 26.92871451 54.73641066 22.12109005 36.46240234 19.13476562 C34.13216997 18.75118027 31.80658881 18.34519578 29.48046875 17.9375 C17.26553948 15.86491999 5.31478774 14.98942241 -7 17 Z M-21.9375 19.5 C-22.96327148 19.71462891 -22.96327148 19.71462891 -24.00976562 19.93359375 C-25.67449514 20.28283771 -27.33744875 20.64052946 -29 21 C-29 21.33 -29 21.66 -29 22 C-21.5928819 21.37727768 -14.31805865 20.29512034 -7 19 C-7 18.67 -7 18.34 -7 18 C-12.23419357 17.83664415 -16.86306192 18.39447963 -21.9375 19.5 Z M-115 53 C-117.34399511 55.2716253 -117.34399511 55.2716253 -119.625 58.1875 C-120.42164063 59.15042969 -121.21828125 60.11335938 -122.0390625 61.10546875 C-123.93689941 63.9068575 -124.6477881 65.67827739 -125 69 C-121.96525291 66.05721495 -119.06934208 63.02568744 -116.25 59.875 C-115.65703125 59.21242188 -115.0640625 58.54984375 -114.453125 57.8671875 C-112.80100363 55.95816621 -112.80100363 55.95816621 -112 53 C-112.99 53 -113.98 53 -115 53 Z M115 66 C116.3089572 69.12197478 116.3089572 69.12197478 119 71 C117.6910428 67.87802522 117.6910428 67.87802522 115 66 Z M121 73 C122 75 122 75 122 75 Z M123 76 C124 78 124 78 124 78 Z M150 116 C151 118 151 118 151 118 Z " fill="#7DD959" transform="translate(251,96)"/>
<path d="M0 0 C4.61369167 -0.97625137 8.41574808 -1.22518982 13 0 C16.09398463 3.30514678 18.14265157 6.791323 20.39453125 10.69140625 C23.02439035 15.23426415 26.2119591 19.0820542 29.6875 23 C30.21021484 23.59756104 30.73292969 24.19512207 31.27148438 24.81079102 C49.29889942 45.14832293 71.92085808 59.31064678 98 67 C98.65774414 67.19674316 99.31548828 67.39348633 99.99316406 67.59619141 C138.27163619 78.78194877 176.91103716 71.77434051 211.41796875 52.953125 C212.04493652 52.60958984 212.6719043 52.26605469 213.31787109 51.91210938 C215.19063226 50.89663249 217.08378862 49.93087271 219 49 C218.773125 49.78375 218.54625 50.5675 218.3125 51.375 C217.88304572 56.3566696 219.36764542 60.33349483 221 65 C216.47704194 67.80423399 213.30565133 69.25720881 208 70 C206.38578637 70.39883743 204.78144198 70.83910175 203.1875 71.3125 C202.41792969 71.53550781 201.64835938 71.75851562 200.85546875 71.98828125 C198.79219801 72.84742596 198.79219801 72.84742596 198.23828125 75.10546875 C198.15964844 75.73066406 198.08101562 76.35585938 198 77 C194.535 77.495 194.535 77.495 191 78 C191.33 77.34 191.66 76.68 192 76 C190.22161271 75.23845461 190.22161271 75.23845461 188 75 C185.87160797 76.08108666 185.87160797 76.08108666 183.625 77.6875 C163.56088529 88.96863396 130.13593732 88.00796429 108.24121094 82.54785156 C105.51789664 81.88215251 102.77981771 81.30063334 100.0390625 80.7109375 C81.16522744 76.50183114 81.16522744 76.50183114 73.7109375 70.9296875 C69.41011441 67.8682947 64.70015033 65.60080025 60.01000977 63.19604492 C55.81742205 61.02611535 51.89753265 58.68062997 48 56 C47.13375 55.505 46.2675 55.01 45.375 54.5 C42.86672762 52.91582797 41.09149657 51.09149657 39 49 C38.21761963 48.54286621 37.43523926 48.08573242 36.62915039 47.61474609 C34.01189395 46.00730491 32.09296191 44.33686252 29.93359375 42.1640625 C29.20076172 41.42929687 28.46792969 40.69453125 27.71289062 39.9375 C26.96201172 39.174375 26.21113281 38.41125 25.4375 37.625 C24.68275391 36.86960937 23.92800781 36.11421875 23.15039062 35.3359375 C13 25.1050592 13 25.1050592 13 22 C12.41476563 21.76796875 11.82953125 21.5359375 11.2265625 21.296875 C6.07047012 18.29367733 2.80748929 11.93095265 0.5625 6.5625 C0.06100773 4.27792408 0 2.33307117 0 0 Z M20 18 C21 20 21 20 21 20 Z M22 21 C23 23 23 23 23 23 Z M25 25 C26.3089572 28.12197478 26.3089572 28.12197478 29 30 C27.6910428 26.87802522 27.6910428 26.87802522 25 25 Z M33 34 C35.57603941 43.44547782 45.96537005 49.29551871 53.42480469 54.83056641 C54.81321036 55.86132635 56.19249927 56.90434215 57.5703125 57.94921875 C72.73635051 69.08599584 89.2947899 73.88284241 107.5925293 76.86523438 C109.93362249 77.24936377 112.27028625 77.65506221 114.60742188 78.0625 C126.88993197 80.13996777 138.59451283 80.71110168 151 79 C151 78.67 151 78.34 151 78 C149.77990234 77.94839722 149.77990234 77.94839722 148.53515625 77.89575195 C124.88620612 76.82336916 101.90843375 74.68218209 80 65 C79.22785156 64.66452148 78.45570313 64.32904297 77.66015625 63.98339844 C62.83022216 57.47626701 51.11846032 49.16377709 38.96875 38.5390625 C36.08504617 35.97056914 36.08504617 35.97056914 33 34 Z M162.1875 75 C161.21167969 75.185625 160.23585938 75.37125 159.23046875 75.5625 C158.12638672 75.7790625 158.12638672 75.7790625 157 76 C157 76.33 157 76.66 157 77 C162.63281599 77.2396943 167.54538831 76.38529821 173 75 C173 74.67 173 74.34 173 74 C169.25658943 73.89050353 165.86168936 74.29172253 162.1875 75 Z M151 77 C151 77.33 151 77.66 151 78 C152.98 78 154.96 78 157 78 C157 77.67 157 77.34 157 77 C155.02 77 153.04 77 151 77 Z " fill="#5CE0E1" transform="translate(117,320)"/>
<path d="M0 0 C34.45986504 -0.61496053 34.45986504 -0.61496053 46.75878906 2.45214844 C49.48210336 3.11784749 52.22018229 3.69936666 54.9609375 4.2890625 C73.83477256 8.49816886 73.83477256 8.49816886 81.2890625 14.0703125 C85.58988559 17.1317053 90.29984967 19.39919975 94.98999023 21.80395508 C99.18241486 23.97380024 103.10434079 26.31670671 107 29 C107.845625 29.495 108.69125 29.99 109.5625 30.5 C112.25157848 32.15481752 114.57719693 33.97160673 117 36 C117.54011719 36.44730469 118.08023438 36.89460938 118.63671875 37.35546875 C123.2125918 41.24064398 127.49806296 45.39270377 131.75 49.625 C132.30494141 50.17534912 132.85988281 50.72569824 133.43164062 51.29272461 C142 59.8934614 142 59.8934614 142 63 C142.58523438 63.23203125 143.17046875 63.4640625 143.7734375 63.703125 C148.92952988 66.70632267 152.19251071 73.06904735 154.4375 78.4375 C155 81 155 81 155 84 C155.8247776 86.0901321 155.8247776 86.0901321 156.96875 88.30859375 C157.37480469 89.13810547 157.78085937 89.96761719 158.19921875 90.82226562 C159.06484902 92.56262437 159.9320316 94.3022119 160.80078125 96.04101562 C161.20683594 96.87181641 161.61289062 97.70261719 162.03125 98.55859375 C162.40830078 99.31454834 162.78535156 100.07050293 163.17382812 100.84936523 C164 103 164 103 164 107 C163.34 107 162.68 107 162 107 C163.98 116.405 163.98 116.405 166 126 C166.66 126 167.32 126 168 126 C169.35439668 128.70879335 169.06501451 131.00933268 169 134 C168.34 134 167.68 134 167 134 C167.08701172 135.2375 167.08701172 135.2375 167.17578125 136.5 C167.57188714 146.64031075 165.46392939 154.57896442 162 164 C161.55785156 165.24136719 161.11570312 166.48273438 160.66015625 167.76171875 C157.2253027 177.08489268 157.2253027 177.08489268 154 181 C154.2165625 179.74832031 154.433125 178.49664062 154.65625 177.20703125 C161.08947072 137.31496134 156.88229345 98.03328969 133.53515625 64.34765625 C129.8190059 59.310208 125.85748159 54.49201376 121.65625 49.8515625 C120.55984204 48.62586115 119.49607505 47.37009382 118.46875 46.0859375 C113.20859495 39.61388398 106.6915739 34.87383233 100 30 C98.62328125 28.98486328 98.62328125 28.98486328 97.21875 27.94921875 C93.44897548 25.23242138 89.74969465 22.77507959 85.5625 20.75 C82 19 82 19 80.6875 17.5703125 C74.52034405 11.83143127 63.01792146 9.56250252 55 7.3125 C54.32638428 7.12252441 53.65276855 6.93254883 52.95874023 6.73681641 C50.64772195 6.11458793 48.32964705 5.54870147 46 5 C44.90292725 4.74033447 43.80585449 4.48066895 42.67553711 4.21313477 C33.22489665 2.13820962 24.2032751 1.47121938 14.5625 1.3125 C13.13734117 1.2791981 11.71220983 1.2446975 10.28710938 1.20898438 C6.85827638 1.12559016 3.42936606 1.05811396 0 1 C0 0.67 0 0.34 0 0 Z M161 105 C162 107 162 107 162 107 Z " fill="#5DE0DE" transform="translate(240,107)"/>
<path d="M0 0 C-1.41205027 4.29016367 -3.49616349 6.96217851 -6.5625 10.25 C-7.36816406 11.12140625 -8.17382812 11.9928125 -9.00390625 12.890625 C-11 15 -11 15 -12 16 C-9.83125748 15.49396008 -8.00032373 15.00016187 -6 14 C-10.41154248 23.6078305 -20.6634505 33.26885286 -30 38 C-30.66 37.67 -31.32 37.34 -32 37 C-27.05 32.71 -22.1 28.42 -17 24 C-17.33 23.67 -17.66 23.34 -18 23 C-18.70125 23.58007812 -19.4025 24.16015625 -20.125 24.7578125 C-22.0908824 26.37646023 -24.06252489 27.98813076 -26.0390625 29.59375 C-27.8162316 31.03799296 -29.58488716 32.49294837 -31.3359375 33.96875 C-36.21058667 37.92823515 -36.21058667 37.92823515 -39.75 38.25 C-43.03079623 36.42733543 -44.28581116 34.30140073 -46 31 C-46.65701856 26.72937939 -45.5068323 23.00422846 -44 19 C-41.96719609 16.6282769 -39.63498777 14.74287753 -37.1875 12.8125 C-36.57068359 12.30525391 -35.95386719 11.79800781 -35.31835938 11.27539062 C-34.1105357 10.28577101 -32.89502679 9.30544406 -31.67138672 8.33544922 C-30.21736729 7.17367792 -28.80209662 5.96373276 -27.39453125 4.74609375 C-19.69313772 -0.86976744 -9.10020363 -0.39629919 0 0 Z " fill="#5BDFE4" transform="translate(385,346)"/>
<path d="M0 0 C3.16409352 -0.59401005 5.85477793 -0.766813 9 0 C11.7509796 2.71158057 13.32105287 5.95509682 15.0625 9.375 C16.08188316 11.22301688 17.1065853 13.06811025 18.13671875 14.91015625 C18.62446777 15.79590332 19.1122168 16.68165039 19.61474609 17.59423828 C22.24182295 22.15666608 25.5173083 26.06133512 29 30 C30.02085882 31.2083118 31.04169362 32.41664389 32.0625 33.625 C32.5471875 34.17800781 33.031875 34.73101562 33.53125 35.30078125 C34.53643092 36.46369002 35.51471855 37.65024284 36.46875 38.85546875 C44.54038899 48.76696662 56.68517023 57.31706919 67.78125 63.56640625 C68.5134375 64.03949219 69.245625 64.51257813 70 65 C70 65.66 70 66.32 70 67 C70.763125 67.226875 71.52625 67.45375 72.3125 67.6875 C75.23717919 68.72848751 77.74359931 69.86958033 80.5 71.25 C93.38989614 77.21819849 108.15879724 80.02283563 122 83 C122 83.33 122 83.66 122 84 C111.99268708 83.78027856 102.87027831 81.29710107 93.31103516 78.60571289 C90.96286466 77.99026698 88.61073523 77.50558025 86.23046875 77.03125 C82.61558993 76.24554349 80.04112132 75.11046337 77 72.9375 C71.53932145 69.24555609 65.86920569 66.20173105 60.01367188 63.19702148 C55.81911584 61.02791218 51.89862431 58.68138078 48 56 C47.13375 55.505 46.2675 55.01 45.375 54.5 C42.86672762 52.91582797 41.09149657 51.09149657 39 49 C38.21761963 48.54286621 37.43523926 48.08573242 36.62915039 47.61474609 C34.01189395 46.00730491 32.09296191 44.33686252 29.93359375 42.1640625 C29.20076172 41.42929687 28.46792969 40.69453125 27.71289062 39.9375 C26.96201172 39.174375 26.21113281 38.41125 25.4375 37.625 C24.68275391 36.86960937 23.92800781 36.11421875 23.15039062 35.3359375 C13 25.1050592 13 25.1050592 13 22 C12.41476563 21.76796875 11.82953125 21.5359375 11.2265625 21.296875 C6.07047012 18.29367733 2.80748929 11.93095265 0.5625 6.5625 C0.06100773 4.27792408 0 2.33307117 0 0 Z " fill="#5DE0DD" transform="translate(117,320)"/>
<path d="M0 0 C0.33 0 0.66 0 1 0 C0.61994721 20.24644878 -4.94140474 41.88280947 -14 60 C-16.04125977 60.41064453 -16.04125977 60.41064453 -18.69140625 60.6328125 C-19.63564453 60.71660156 -20.57988281 60.80039062 -21.55273438 60.88671875 C-22.54595703 60.96535156 -23.53917969 61.04398437 -24.5625 61.125 C-25.55958984 61.21136719 -26.55667969 61.29773438 -27.58398438 61.38671875 C-30.05539988 61.59956793 -32.52723225 61.80359321 -35 62 C-34.57589844 61.35675781 -34.15179688 60.71351563 -33.71484375 60.05078125 C-30.40616743 54.95323817 -27.34764866 49.8409451 -24.5625 44.4375 C-22.39144068 40.31297082 -20.1564665 36.78571044 -17.125 33.25 C-9.18321569 23.77857241 -3.62936002 11.75100482 0 0 Z " fill="#5BDDE0" transform="translate(406,273)"/>
<path d="M0 0 C27.00678192 7.32387306 52.152596 33.81150492 66 57 C66.60593994 58.00740234 66.60593994 58.00740234 67.22412109 59.03515625 C69.95284651 63.62037201 72.51957477 68.2764625 75 73 C75.81404297 74.52753906 75.81404297 74.52753906 76.64453125 76.0859375 C80.1016769 83.03671582 82.49975577 90.22646385 84.8125 97.625 C85.11494629 98.57898682 85.41739258 99.53297363 85.72900391 100.51586914 C87.68166086 107.00702842 88.64021932 113.23414739 89 120 C87.35 120.33 85.7 120.66 84 121 C83.62875 119.1128125 83.62875 119.1128125 83.25 117.1875 C82.83507558 115.1246488 82.41804917 113.06222022 82 111 C81.8551416 110.28150879 81.7102832 109.56301758 81.56103516 108.82275391 C81.06659087 106.3807737 80.56506675 103.94032057 80.0625 101.5 C79.90491211 100.71778076 79.74732422 99.93556152 79.58496094 99.12963867 C79.08994738 96.74409991 78.55808604 94.37156303 78 92 C77.81880615 91.22954346 77.6376123 90.45908691 77.45092773 89.6652832 C75.39938325 81.9666958 71.73062726 75.15294089 67.9375 68.1875 C67.60064178 67.56516479 67.26378357 66.94282959 66.91671753 66.30163574 C51.89821155 38.6571569 28.2741854 16.1370927 0 2 C0 1.34 0 0.68 0 0 Z " fill="#5BE0E6" transform="translate(326,108)"/>
<path d="M0 0 C7 4 7 4 9 6 C9.36303711 8.14794922 9.36303711 8.14794922 9.52734375 10.8046875 C9.59550293 11.77510986 9.66366211 12.74553223 9.73388672 13.74536133 C9.8010791 14.77814209 9.86827148 15.81092285 9.9375 16.875 C10.81243832 28.3204959 12.59991891 38.37959033 17.23046875 48.94140625 C18 51 18 51 18 54 C8.97748344 54.61986755 8.97748344 54.61986755 5.4375 52.375 C3.73694121 49.56538113 3.29560254 47.25162799 3 44 C3.66 44 4.32 44 5 44 C3.68 37.73 2.36 31.46 1 25 C0.34 25 -0.32 25 -1 25 C-2.35439668 22.29120665 -2.06501451 19.99066732 -2 17 C-1.34 17 -0.68 17 0 17 C0 11.39 0 5.78 0 0 Z M5 44 C6 46 6 46 6 46 Z " fill="#5EDFDA" transform="translate(105,254)"/>
<path d="M0 0 C1.21236328 0.01353516 1.21236328 0.01353516 2.44921875 0.02734375 C3.37154297 0.04474609 3.37154297 0.04474609 4.3125 0.0625 C4.14234375 0.61035156 3.9721875 1.15820312 3.796875 1.72265625 C0.44114177 12.70018782 -2.66536317 23.75449797 -4.6875 35.0625 C-10.20879537 31.59815781 -14.18693678 28.21432809 -16.6875 22.0625 C-17.81621459 16.39912505 -16.69793057 11.77255726 -13.8984375 6.7890625 C-10.27701824 1.62561956 -6.10652203 -0.08850032 0 0 Z " fill="#7CD859" transform="translate(119.6875,206.9375)"/>
<path d="M0 0 C1.81542969 0.1784668 1.81542969 0.1784668 4 1 C5.52050781 3.21801758 5.52050781 3.21801758 6.953125 6.14453125 C7.75194092 7.74035034 7.75194092 7.74035034 8.56689453 9.3684082 C9.40003174 11.07323364 9.40003174 11.07323364 10.25 12.8125 C17.04549409 26.25904381 24.11735956 37.72190601 34.6328125 48.5859375 C35.9234376 49.92081261 37.19668592 51.27242553 38.46875 52.625 C50.16255389 64.77440663 64.88722587 75.44361294 80 83 C80 83.66 80 84.32 80 85 C50.03829403 76.8747916 25.1550295 47.40860279 10.30102539 21.69848633 C0 3.53643346 0 3.53643346 0 0 Z " fill="#7DD955" transform="translate(106,319)"/>
<path d="M0 0 C17.26670186 5.40071276 32.44454616 16.29301714 46 28 C46.80179687 28.67933594 47.60359375 29.35867187 48.4296875 30.05859375 C73.9557209 52.10380441 90.6482731 83.93537107 98.4375 116.375 C98.6015332 117.05812256 98.76556641 117.74124512 98.93457031 118.44506836 C99.80947409 122.36011598 100.15505748 125.99331481 100 130 C99.34 129.67 98.68 129.34 98 129 C97.33325195 126.87719727 97.33325195 126.87719727 96.73828125 124.06640625 C96.51027832 123.03378662 96.28227539 122.00116699 96.04736328 120.93725586 C95.8048584 119.82358643 95.56235352 118.70991699 95.3125 117.5625 C86.52292788 79.27595007 64.23448943 41.45945282 31.24609375 19.02734375 C22.23810632 13.40141658 12.98210904 7.89962491 3.421875 3.265625 C1 2 1 2 0 0 Z " fill="#5BE1E6" transform="translate(319,98)"/>
<path d="M0 0 C3 1 3 1 4.11572266 2.91088867 C4.4616748 3.7382251 4.80762695 4.56556152 5.1640625 5.41796875 C5.55907959 6.33578125 5.95409668 7.25359375 6.36108398 8.19921875 C6.77817627 9.18535156 7.19526855 10.17148437 7.625 11.1875 C22.64500583 45.34957429 48.6851737 71.29381506 81.21289062 89.02490234 C83.65071391 90.355048 86.07509749 91.70897737 88.5 93.0625 C89.66640312 93.70880919 90.83294108 94.35487576 92 95 C91.01 95.495 91.01 95.495 90 96 C87.5035951 94.95881649 85.15080864 93.85768903 82.75 92.625 C81.67625122 92.07851807 81.67625122 92.07851807 80.58081055 91.52099609 C44.36122768 72.73691456 13.86077429 40.77507746 0 2 C0 1.34 0 0.68 0 0 Z " fill="#7CD956" transform="translate(101,318)"/>
<path d="M0 0 C1.32 0.66 2.64 1.32 4 2 C4.0501123 2.97759277 4.10022461 3.95518555 4.15185547 4.96240234 C4.34204923 8.63436802 4.54196549 12.305754 4.74462891 15.97705078 C4.83056202 17.55764075 4.91395562 19.13837113 4.99462891 20.71923828 C5.59339402 32.45968436 5.59339402 32.45968436 7.55419922 44.03662109 C8.1254524 46.55251272 8.40485895 49.05668778 8.625 51.625 C8.69976562 52.46289062 8.77453125 53.30078125 8.8515625 54.1640625 C8.92503906 55.07285156 8.92503906 55.07285156 9 56 C3.79059781 50.95864304 3.8016584 47.86788927 3.4765625 40.75 C3.31929688 39.8425 3.16203125 38.935 3 38 C2.01 37.34 1.02 36.68 0 36 C-1.24955292 28.91920011 -1.15127659 21.79850797 -1.125 14.625 C-1.12886719 13.54605469 -1.13273437 12.46710938 -1.13671875 11.35546875 C-1.13542969 10.32292969 -1.13414063 9.29039062 -1.1328125 8.2265625 C-1.13168457 7.29408691 -1.13055664 6.36161133 -1.12939453 5.40087891 C-1 3 -1 3 0 0 Z " fill="#7CD757" transform="translate(96,247)"/>
<path d="M0 0 C4.5142775 3.66866356 8.50151106 7.33534808 12 12 C12 12.66 12 13.32 12 14 C12.87785156 14.34804687 12.87785156 14.34804687 13.7734375 14.703125 C18.92952988 17.70632267 22.19251071 24.06904735 24.4375 29.4375 C25 32 25 32 25 35 C25.8247776 37.0901321 25.8247776 37.0901321 26.96875 39.30859375 C27.37480469 40.13810547 27.78085937 40.96761719 28.19921875 41.82226562 C29.06484902 43.56262437 29.9320316 45.3022119 30.80078125 47.04101562 C31.20683594 47.87181641 31.61289062 48.70261719 32.03125 49.55859375 C32.40830078 50.31454834 32.78535156 51.07050293 33.17382812 51.84936523 C34 54 34 54 34 58 C33.34 58 32.68 58 32 58 C32.15597656 58.67546875 32.31195313 59.3509375 32.47265625 60.046875 C32.66730469 60.93890625 32.86195313 61.8309375 33.0625 62.75 C33.35833984 64.07257813 33.35833984 64.07257813 33.66015625 65.421875 C33.99825872 67.98679028 33.81158635 69.57091639 33 72 C27.96678713 56.86193991 27.96678713 56.86193991 26.9375 49.5625 C25.82014412 41.91688894 22.72012511 35.83454771 18.5390625 29.421875 C17.30013377 27.47229173 16.12076861 25.51210788 14.9609375 23.515625 C10.88208964 16.51962646 6.73444847 10.02429968 1.43359375 3.85546875 C0 2 0 2 0 0 Z M31 56 C32 58 32 58 32 58 Z " fill="#7CD95D" transform="translate(370,156)"/>
<path d="M0 0 C2.15625 1.18359375 2.15625 1.18359375 4 3 C4.98732717 7.75514188 4.89309433 12.46387776 2.4375 16.6875 C-0.9236444 18.49734698 -3.24120497 18.4783921 -7 18 C-8.6875 16.84765625 -8.6875 16.84765625 -10 15 C-10.43359375 12.1875 -10.43359375 12.1875 -10.4375 9 C-10.45683594 7.948125 -10.47617187 6.89625 -10.49609375 5.8125 C-10 3 -10 3 -8.16015625 1.1484375 C-5.22650377 -0.41122584 -3.27907312 -0.40988414 0 0 Z " fill="#254264" transform="translate(311,205)"/>
<path d="M0 0 C0 0.33 0 0.66 0 1 C-1.15371094 1.07476562 -2.30742187 1.14953125 -3.49609375 1.2265625 C-40.52765183 4.04904277 -74.51751808 17.23294007 -102.33325195 42.01513672 C-104.58362357 44.00998609 -106.63356723 45.81831297 -109.33984375 47.16015625 C-111.37223585 47.94374209 -111.37223585 47.94374209 -112 51 C-112.66 50.34 -113.32 49.68 -114 49 C-85.95633481 18.95321587 -41.6312085 -2.79195884 0 0 Z " fill="#7DD956" transform="translate(251,96)"/>
<path d="M0 0 C1 3 1 3 -0.06396484 5.41674805 C-0.60746582 6.35558838 -1.1509668 7.29442871 -1.7109375 8.26171875 C-2.29617187 9.29876953 -2.88140625 10.33582031 -3.484375 11.40429688 C-4.7344008 13.57505449 -5.98696356 15.74435339 -7.2421875 17.91210938 C-10.52456859 23.73905563 -12.8208066 28.26395713 -13 35 C-19.625 37.125 -19.625 37.125 -23 36 C-18.75661526 24.933082 -13.58763748 13.88145622 -7 4 C-6.34 4 -5.68 4 -5 4 C-6.875 9.75 -6.875 9.75 -8 12 C-5.36 8.04 -2.72 4.08 0 0 Z " fill="#5CDFE0" transform="translate(126,160)"/>
<path d="M0 0 C5.05549959 1.76465552 9.24972913 4.6690483 13.65234375 7.63476562 C17.64360748 10.27075409 21.56602757 12.20287728 26 14 C28.9375 15.5625 28.9375 15.5625 31 17 C31 17.66 31 18.32 31 19 C31.763125 19.226875 32.52625 19.45375 33.3125 19.6875 C36.23717919 20.72848751 38.74359931 21.86958033 41.5 23.25 C54.38989614 29.21819849 69.15879724 32.02283563 83 35 C83 35.33 83 35.66 83 36 C72.99268708 35.78027856 63.87027831 33.29710107 54.31103516 30.60571289 C51.96286466 29.99026698 49.61073523 29.50558025 47.23046875 29.03125 C43.61558993 28.24554349 41.04112132 27.11046337 38 24.9375 C32.53932145 21.24555609 26.86920569 18.20173105 21.01367188 15.19702148 C16.81891923 13.02781051 12.9013182 10.6774879 9 8 C8.13375 7.525625 7.2675 7.05125 6.375 6.5625 C3.60785147 4.74200754 1.94221559 2.66155469 0 0 Z " fill="#7CD95A" transform="translate(156,368)"/>
<path d="M0 0 C-1.69377028 9.07058558 -3.85587836 18.02799587 -6 27 C-9.50782101 23.60533451 -11.14987787 21.78790016 -11.3125 16.875 C-11.24759761 11.83695229 -9.88734369 8.11284004 -7 4 C-2.8 0 -2.8 0 0 0 Z " fill="#5DD8D0" transform="translate(114,208)"/>
<path d="M0 0 C0.99 0.33 1.98 0.66 3 1 C-19.78748351 18.44987476 -52.58220059 27.44701666 -81 26 C-81 25.67 -81 25.34 -81 25 C-79.79988281 24.91363281 -78.59976562 24.82726562 -77.36328125 24.73828125 C-54.08765329 22.86281458 -17.39233917 17.39233917 0 0 Z " fill="#5BE1E6" transform="translate(342,390)"/>
<path d="M0 0 C4.45725586 0.44572559 7.61382273 1.8280951 11.55078125 3.8828125 C20.09775717 7.7814331 29.02747865 9.42165444 38.35546875 9.82421875 C41 10 41 10 44 11 C44 11.66 44 12.32 44 13 C45.98 13 47.96 13 50 13 C50.495 13.99 50.495 13.99 51 15 C33.17550579 14.23335509 15.91534982 11.22331573 0 3 C0 2.01 0 1.02 0 0 Z " fill="#5BE1E6" transform="translate(193,395)"/>
<path d="M0 0 C1.35416667 0.54166667 2.70833333 1.08333333 4.0625 1.625 C4.98289063 1.98851562 5.90328125 2.35203125 6.8515625 2.7265625 C9.02619412 3.60612814 11.18718553 4.51991497 13.3359375 5.4609375 C28.87420564 12.10093495 45.39875679 14.38188279 62 17 C62 17.66 62 18.32 62 19 C55.75424081 19.14885623 50.05385493 18.74637763 43.9375 17.5 C43.09405029 17.32911865 42.25060059 17.1582373 41.3815918 16.98217773 C34.21926924 15.43618882 27.26928364 13.35255114 20.3125 11.0625 C19.3217749 10.73894531 18.3310498 10.41539062 17.31030273 10.08203125 C11.14035858 7.97646927 5.57722782 5.37580456 0 2 C0 1.34 0 0.68 0 0 Z " fill="#5BE1E7" transform="translate(182,397)"/>
<path d="M0 0 C17.82449421 0.76664491 35.08465018 3.77668427 51 12 C51 12.99 51 13.98 51 15 C46.90897752 14.67702454 43.93511419 13.53712585 40.375 11.625 C31.55233799 7.06200889 22.5549859 5.71189019 12.71484375 5.2109375 C10 5 10 5 7 4 C7 3.34 7 2.68 7 2 C5.02 2 3.04 2 1 2 C0.67 1.34 0.34 0.68 0 0 Z " fill="#7DD956" transform="translate(268,102)"/>
<path d="M0 0 C6.24575919 -0.14885623 11.94614507 0.25362237 18.0625 1.5 C18.90594971 1.67088135 19.74939941 1.8417627 20.6184082 2.01782227 C27.78073076 3.56381118 34.73071636 5.64744886 41.6875 7.9375 C42.6782251 8.26105469 43.6689502 8.58460937 44.68969727 8.91796875 C50.85964142 11.02353073 56.42277218 13.62419544 62 17 C58.17733552 18.13543494 56.70913977 17.69430499 53.125 15.875 C36.04708393 7.80423549 18.51205664 5.07845585 0 2 C0 1.34 0 0.68 0 0 Z " fill="#7DD955" transform="translate(268,96)"/>
<path d="M0 0 C0.66 0.33 1.32 0.66 2 1 C1.23816406 1.98097656 0.47632813 2.96195313 -0.30859375 3.97265625 C-6.81309449 12.44046051 -12.64186529 21.03027033 -17.99169922 30.26464844 C-19.58666244 33.00968441 -21.21673114 35.73026358 -22.875 38.4375 C-23.40867187 39.32308594 -23.94234375 40.20867187 -24.4921875 41.12109375 C-25.23855469 42.05115234 -25.23855469 42.05115234 -26 43 C-26.99 43 -27.98 43 -29 43 C-27.16983707 35.27264539 -21.72634173 29.24994199 -17 23.0625 C-14.65417453 19.98243738 -12.59676313 16.79378462 -10.5625 13.5 C-7.47211667 8.55400704 -3.99556829 4.23845998 0 0 Z " fill="#60DFD3" transform="translate(146,152)"/>
<path d="M0 0 C0.33 0.66 0.66 1.32 1 2 C-0.61231267 4.54575685 -1.50644889 5.82257967 -4.390625 6.859375 C-7.50062429 8.21883577 -8.60221889 9.63697395 -10.5625 12.375 C-12.27440302 14.73924481 -13.88752911 16.89041298 -15.98046875 18.9296875 C-18.33281366 21.34118228 -19.97838017 23.88815259 -21.75 26.75 C-22.67039062 28.22726563 -22.67039062 28.22726563 -23.609375 29.734375 C-24.06828125 30.48203125 -24.5271875 31.2296875 -25 32 C-25.33 31.34 -25.66 30.68 -26 30 C-24.9609375 27.93359375 -24.9609375 27.93359375 -23.375 25.4375 C-21.2665587 22.07565351 -19.31209262 18.7169353 -17.5 15.1875 C-14.26278393 9.30448233 -9.76186654 6.33581747 -4 3 C-2.65368175 2.01755155 -1.31558703 1.02323436 0 0 Z " fill="#73DB7E" transform="translate(142,143)"/>
<path d="M0 0 C0 4.72483912 -3.10252057 6.86474087 -6.21484375 10.21875 C-19.23363346 23.21928054 -19.23363346 23.21928054 -25 24 C-20.98841596 19.85469649 -16.70109315 16.11384661 -12.3046875 12.37890625 C-9.78592102 9.77902695 -8.58655586 7.22659113 -7 4 C-3.875 2.1875 -3.875 2.1875 -1 1 C-0.67 0.67 -0.34 0.34 0 0 Z " fill="#64DBB8" transform="translate(378,360)"/>
<path d="M0 0 C3 2 3 2 3.52416992 4.61376953 C3.59224854 5.69255371 3.66032715 6.77133789 3.73046875 7.8828125 C3.81103516 9.04941406 3.89160156 10.21601563 3.97460938 11.41796875 C4.04486328 12.64128906 4.11511719 13.86460937 4.1875 15.125 C4.26935547 16.35605469 4.35121094 17.58710938 4.43554688 18.85546875 C4.63635717 21.90306032 4.82393205 24.9508951 5 28 C2.23561071 25.23561071 2.03810598 22.21508835 1.375 18.5 C1.24311279 17.78328125 1.11122559 17.0665625 0.9753418 16.328125 C0.02358153 10.85504206 -0.36064599 5.55661974 0 0 Z " fill="#7AD75F" transform="translate(111,258)"/>
<path d="M0 0 C0.33 0 0.66 0 1 0 C1.33 1.65 1.66 3.3 2 5 C2.66 5 3.32 5 4 5 C5.35439668 7.70879335 5.06501451 10.00933268 5 13 C4.34 13 3.68 13 3 13 C3 17.62 3 22.24 3 27 C2.67 27 2.34 27 2 27 C1.66134859 24.00051609 1.32894927 21.00055074 1 18 C0.90460938 17.16082031 0.80921875 16.32164062 0.7109375 15.45703125 C0.14785091 10.26859055 -0.09664316 5.21873039 0 0 Z " fill="#6ED891" transform="translate(404,228)"/>
<path d="M0 0 C3.86715038 2.12246797 6.74405677 4.52746145 9.8125 7.6875 C10.60269531 8.49574219 11.39289063 9.30398437 12.20703125 10.13671875 C13.09455078 11.05904297 13.09455078 11.05904297 14 12 C12.02 12.99 12.02 12.99 10 14 C10 13.34 10 12.68 10 12 C9.34 12 8.68 12 8 12 C6.0546875 9.8828125 6.0546875 9.8828125 3.875 7.125 C3.15054687 6.22007812 2.42609375 5.31515625 1.6796875 4.3828125 C0 2 0 2 0 0 Z " fill="#78DA6B" transform="translate(356,143)"/>
<path d="M0 0 C2.1170565 1.99647187 3.70743562 3.93378743 5.19140625 6.43359375 C5.57876953 7.08263672 5.96613281 7.73167969 6.36523438 8.40039062 C6.76033203 9.07263672 7.15542969 9.74488281 7.5625 10.4375 C8.16094727 11.44006836 8.16094727 11.44006836 8.77148438 12.46289062 C10.62878368 15.59146324 12.44243733 18.70807025 14 22 C6.23743136 16.74885063 2.3776748 8.8224249 0 0 Z " fill="#7BDA61" transform="translate(128,325)"/>
<path d="M0 0 C0.66 0.33 1.32 0.66 2 1 C2 1.66 2 2.32 2 3 C0.27559635 3.98753064 -1.45475026 4.96468806 -3.1875 5.9375 C-4.15042969 6.48277344 -5.11335938 7.02804687 -6.10546875 7.58984375 C-8.80662842 8.90579333 -11.04356101 9.57301887 -14 10 C-11.46357916 7.21423609 -8.59630744 5.28576938 -5.4375 3.25 C-4.46683594 2.61578125 -3.49617188 1.9815625 -2.49609375 1.328125 C-1.67238281 0.88984375 -0.84867187 0.4515625 0 0 Z " fill="#5BE0E7" transform="translate(338,386)"/>
<path d="M0 0 C0.99 0.33 1.98 0.66 3 1 C3.66 7.27 4.32 13.54 5 20 C2.49959692 17.49959692 2.21635546 15.66641309 1.375 12.25 C1.11460938 11.22390625 0.85421875 10.1978125 0.5859375 9.140625 C0.00280624 6.01504144 -0.10443764 3.17110651 0 0 Z " fill="#78D867" transform="translate(106,255)"/>
<path d="M0 0 C0 3 0 3 -1.390625 4.5703125 C-2.31101562 5.33988281 -2.31101562 5.33988281 -3.25 6.125 C-3.85328125 6.64320313 -4.4565625 7.16140625 -5.078125 7.6953125 C-7.07471451 9.05072083 -8.64237402 9.57228909 -11 10 C-7.50640535 6.40365256 -3.88901869 3.16548033 0 0 Z " fill="#5AE1E6" transform="translate(364,374)"/>
<path d="M0 0 C1.84187025 2.76280538 2.72248277 4.80707826 3.6875 7.9375 C3.95949219 8.79214844 4.23148437 9.64679688 4.51171875 10.52734375 C5.02075548 13.10510574 4.84888744 14.54449337 4 17 C3.13227971 14.92227529 2.28126381 12.83756823 1.4375 10.75 C0.96183594 9.58984375 0.48617188 8.4296875 -0.00390625 7.234375 C-0.95770524 4.13733356 -1.20983356 2.92678299 0 0 Z " fill="#7ADA66" transform="translate(390,203)"/>
<path d="M0 0 C0.66 0.33 1.32 0.66 2 1 C-1.75 7.75 -1.75 7.75 -4 10 C-4.66 9.67 -5.32 9.34 -6 9 C-4.68775452 5.06326356 -3.08089673 2.77280706 0 0 Z " fill="#5EE0DD" transform="translate(131,150)"/>
<path d="M0 0 C0.33 0 0.66 0 1 0 C0.67 4.62 0.34 9.24 0 14 C-3 10 -3 10 -2.63671875 7.421875 C-2.32347656 6.54015625 -2.01023437 5.6584375 -1.6875 4.75 C-1.22923828 3.41195313 -1.22923828 3.41195313 -0.76171875 2.046875 C-0.51035156 1.37140625 -0.25898438 0.6959375 0 0 Z " fill="#4DB0B4" transform="translate(406,273)"/>
<path d="M0 0 C0.66 0 1.32 0 2 0 C1.34 2.97 0.68 5.94 0 9 C-0.99 8.67 -1.98 8.34 -3 8 C-1.125 2.25 -1.125 2.25 0 0 Z " fill="#63D3AF" transform="translate(402,284)"/>
<path d="M0 0 C3.36720387 1.39332574 4.9859524 2.9789286 7 6 C3.47190093 6 2.53184488 5.35723489 0 3 C0 2.01 0 1.02 0 0 Z " fill="#66DEB8" transform="translate(159,366)"/>
<path d="M0 0 C3.40312738 1.05875074 6.01353231 2.00902154 9 4 C8.67 4.66 8.34 5.32 8 6 C6.66402348 5.19185349 5.331275 4.37836819 4 3.5625 C3.2575 3.11003906 2.515 2.65757812 1.75 2.19140625 C1.1725 1.79824219 0.595 1.40507812 0 1 C0 0.67 0 0.34 0 0 Z " fill="#5BE1E7" transform="translate(169,383)"/>
<path d="M0 0 C1.31602523 0.61754259 2.62773556 1.24428742 3.9375 1.875 C4.66839844 2.22304687 5.39929688 2.57109375 6.15234375 2.9296875 C8 4 8 4 9 6 C5.59687262 4.94124926 2.98646769 3.99097846 0 2 C0 1.34 0 0.68 0 0 Z " fill="#7DD956" transform="translate(334,123)"/>
<path d="M0 0 C1.8871875 0.0309375 1.8871875 0.0309375 3.8125 0.0625 C0.27838679 2.18296792 -3.13143835 2.59449289 -7.1875 3.0625 C-7.1875 2.4025 -7.1875 1.7425 -7.1875 1.0625 C-4.43671116 0.14557039 -2.82801087 -0.04636083 0 0 Z " fill="#7EDA54" transform="translate(229.1875,105.9375)"/>
<path d="M0 0 C0 0.66 0 1.32 0 2 C-3.67410785 3.17571451 -7.16929183 3.07366746 -11 3 C-7.4536218 1.02978989 -4.07768576 0 0 0 Z " fill="#5BE2E7" transform="translate(290,403)"/>
<path d="M0 0 C0.99 0.33 1.98 0.66 3 1 C1.35 1.33 -0.3 1.66 -2 2 C-1.34 1.34 -0.68 0.68 0 0 Z " fill="#5CE1E7" transform="translate(305,401)"/>
<path d="M0 0 C0.99 0.33 1.98 0.66 3 1 C1.35 1.33 -0.3 1.66 -2 2 C-1.34 1.34 -0.68 0.68 0 0 Z " fill="#7DDA55" transform="translate(206,109)"/>
<path d="M0 0 C0 0.99 0 1.98 0 3 C-0.66 2.67 -1.32 2.34 -2 2 C-1.34 1.34 -0.68 0.68 0 0 Z " fill="#5CE1EB" transform="translate(142,137)"/>
<path d="M0 0 C1 4 1 4 1 4 Z " fill="#5EE1EB" transform="translate(102,264)"/>
<path d="M0 0 C2 1 2 1 2 1 Z " fill="#80DB54" transform="translate(234,424)"/>
<path d="M0 0 C2 1 2 1 2 1 Z " fill="#80DF50" transform="translate(287,423)"/>
<path d="" fill="#80DC52" transform="translate(0,0)"/>
<path d="M0 0 C2 1 2 1 2 1 Z " fill="#5CE3EB" transform="translate(276,87)"/>
<path d="" fill="#80DF50" transform="translate(0,0)"/>
<path d="" fill="#80DF50" transform="translate(0,0)"/>
<path d="" fill="#60DFEF" transform="translate(0,0)"/>
<path d="" fill="#80DF50" transform="translate(0,0)"/>
<path d="" fill="#60DFEF" transform="translate(0,0)"/>
<path d="" fill="#80DF50" transform="translate(0,0)"/>
<path d="" fill="#60DFEF" transform="translate(0,0)"/>
<path d="" fill="#60DFEF" transform="translate(0,0)"/>
<path d="" fill="#60DFEF" transform="translate(0,0)"/>
</svg>
