<svg width="32" height="32" viewBox="0 0 32 32" fill="#898792" xmlns="http://www.w3.org/2000/svg">
<path d="M15.2 20.7336V16.1541H16.8V20.7336H15.2Z"></path>
<path fill-rule="evenodd" clip-rule="evenodd" d="M20.521 10.5889C20.521 10.6993 20.6105 10.7889 20.721 10.7889H23C23.9941 10.7889 24.8 11.5948 24.8 12.5889V20.0002C24.8 23.7558 21.7555 26.8002 18 26.8002H14C10.2445 26.8002 7.20001 23.7558 7.20001 20.0002V12.5889C7.20001 11.5948 8.0059 10.7889 9.00001 10.7889H11.2791C11.3896 10.7889 11.4791 10.6993 11.4791 10.5889V9.00001C11.4791 6.90133 13.1804 5.20001 15.2791 5.20001H16.7209C18.8196 5.20001 20.5209 6.90132 20.5209 9L20.521 10.5889ZM18.721 10.7889C18.774 10.7889 18.8249 10.7678 18.8624 10.7303C18.8999 10.6928 18.9209 10.6419 18.9209 10.5889L18.9209 9C18.9209 7.78498 17.936 6.80001 16.7209 6.80001L15.2791 6.80001C14.0641 6.80001 13.0791 7.78499 13.0791 9.00001V10.5889C13.0791 10.6419 13.1002 10.6928 13.1377 10.7303C13.1752 10.7678 13.2261 10.7889 13.2791 10.7889L18.721 10.7889ZM23.2 12.5889C23.2 12.4784 23.1105 12.3889 23 12.3889H9.00001C8.88956 12.3889 8.80001 12.4784 8.80001 12.5889V20.0002C8.80001 22.8721 11.1281 25.2002 14 25.2002H18C20.8719 25.2002 23.2 22.8721 23.2 20.0002V12.5889Z"></path>
</svg>
